<?xml version="1.0" standalone="no"?>
<!DOCTYPE svg PUBLIC "-//W3C//DTD SVG 20010904//EN"
 "http://www.w3.org/TR/2001/REC-SVG-20010904/DTD/svg10.dtd">
<svg version="1.0" xmlns="http://www.w3.org/2000/svg"
 width="240.000000pt" height="240.000000pt" viewBox="0 0 240.000000 240.000000"
 preserveAspectRatio="xMidYMid meet">
<metadata>
Created by potrace 1.10, written by Peter Selinger 2001-2011
</metadata>
<g transform="translate(0.000000,240.000000) scale(0.100000,-0.100000)"
fill="#000000" stroke="none">
<path d="M1114 2361 c-18 -11 -35 -25 -39 -31 -12 -20 -108 -60 -143 -60 -18
0 -58 7 -90 16 -103 29 -168 -4 -225 -111 -41 -76 -89 -110 -186 -130 -111
-22 -161 -78 -161 -182 0 -73 -38 -145 -97 -185 -71 -49 -99 -82 -112 -133
-10 -40 -8 -53 14 -117 37 -106 33 -139 -31 -246 -52 -85 -43 -160 27 -227 73
-72 94 -134 77 -235 -10 -59 -9 -69 10 -107 29 -57 56 -79 115 -99 74 -25 129
-84 151 -164 22 -79 38 -103 85 -132 30 -19 51 -23 121 -24 104 -1 148 -20
211 -95 73 -87 142 -100 259 -49 90 39 142 39 220 0 100 -51 163 -38 236 46
65 76 110 98 203 96 123 -2 177 36 210 145 28 94 58 127 156 174 79 37 85 42
111 94 25 53 26 58 15 116 -19 94 0 151 74 229 77 81 82 148 21 247 -50 82
-55 132 -22 228 23 67 25 82 15 117 -15 56 -34 84 -78 109 -87 53 -120 108
-131 217 -11 111 -58 161 -172 181 -81 14 -131 49 -166 113 -61 117 -126 151
-234 122 -102 -26 -149 -14 -267 71 -44 32 -130 35 -177 6z m159 -18 c18 -9
37 -22 42 -29 6 -7 33 -24 61 -38 56 -28 122 -34 170 -16 80 31 164 3 199 -65
23 -44 25 -48 61 -93 31 -38 74 -59 164 -78 53 -12 71 -21 98 -50 35 -39 38
-50 45 -134 7 -73 40 -136 94 -173 24 -17 43 -35 43 -40 0 -4 4 -6 9 -2 16 9
53 -55 59 -100 3 -28 -3 -63 -17 -104 -31 -89 -27 -125 19 -219 58 -116 55
-174 -12 -242 -19 -19 -45 -53 -59 -75 -22 -36 -24 -49 -22 -144 3 -138 -12
-168 -106 -208 -96 -41 -171 -126 -171 -194 0 -9 -7 -25 -16 -33 -8 -9 -12
-16 -8 -16 11 0 -37 -50 -61 -63 -11 -6 -60 -12 -110 -13 -76 -2 -97 -6 -135
-28 -25 -14 -52 -35 -60 -47 -72 -105 -129 -121 -238 -67 -80 39 -127 39 -213
3 -130 -55 -168 -49 -253 41 -91 96 -90 95 -292 103 -11 1 -37 13 -57 29 -28
20 -41 40 -53 82 -34 115 -73 160 -179 205 -43 18 -64 32 -61 41 3 8 0 11 -8
8 -23 -9 -40 68 -32 146 4 43 2 88 -5 113 -11 42 -56 108 -96 140 -49 40 -54
132 -10 191 29 37 57 115 57 156 0 17 -10 57 -21 91 -14 41 -20 76 -17 104 5
44 43 109 58 100 4 -3 10 1 13 8 3 8 21 21 40 30 48 23 97 123 97 199 0 48 5
61 35 101 20 26 46 49 58 52 12 3 42 9 67 14 99 21 158 67 200 156 37 78 113
105 210 76 75 -23 159 -4 225 51 17 14 39 30 50 36 30 17 101 14 138 -5z"/>
<path d="M1135 2223 c-200 -16 -396 -87 -535 -194 -36 -27 -84 -64 -107 -81
-24 -18 -43 -37 -43 -44 0 -7 -4 -14 -8 -16 -12 -5 -102 -119 -102 -130 0 -5
-5 -6 -12 -2 -6 4 -8 3 -4 -4 3 -5 3 -12 -2 -14 -15 -7 -103 -210 -123 -285
-14 -56 -22 -122 -25 -233 -3 -85 -6 -163 -8 -173 -2 -9 -1 -15 4 -12 4 2 11
-14 14 -38 34 -215 194 -480 368 -611 21 -16 35 -33 31 -39 -3 -5 -1 -7 4 -4
6 4 22 -2 36 -13 13 -11 35 -24 48 -30 13 -6 38 -18 54 -28 111 -66 381 -129
515 -119 145 10 348 67 448 126 29 17 57 31 62 31 4 0 10 3 12 8 2 4 30 27 63
52 175 130 318 342 377 560 20 75 23 106 22 260 -1 130 -5 191 -18 238 -9 34
-14 67 -11 72 3 6 2 10 -2 10 -5 0 -15 17 -22 38 -34 92 -90 193 -145 260 -34
41 -65 81 -71 90 -5 10 -17 21 -25 26 -8 5 -35 29 -60 53 -25 24 -65 56 -90
70 -25 15 -51 33 -58 40 -7 7 -17 13 -22 13 -5 0 -42 15 -82 34 -136 64 -338
101 -483 89z m240 -35 c314 -48 611 -276 745 -572 36 -80 80 -226 82 -275 3
-85 -74 -145 -159 -122 -57 16 -72 38 -99 146 -40 161 -111 284 -227 391 -113
105 -231 163 -388 190 -231 40 -463 -29 -635 -188 -124 -117 -194 -238 -231
-403 -20 -89 -34 -110 -88 -131 -56 -21 -105 -13 -147 25 -39 35 -41 78 -9
200 90 346 376 632 718 721 150 39 273 44 438 18z m40 -278 c321 -101 528
-380 527 -710 0 -335 -206 -610 -532 -712 -108 -33 -302 -33 -410 0 -261 82
-454 282 -516 537 -23 93 -23 257 0 350 36 150 131 300 251 398 74 61 217 131
310 151 99 22 277 15 370 -14z m794 -770 c-5 -100 -14 -158 -33 -225 -168
-573 -768 -878 -1331 -674 -280 102 -517 348 -609 634 -32 101 -44 173 -51
300 l-5 100 23 -27 c31 -37 58 -48 120 -48 41 0 63 6 89 24 l35 24 5 -102 c4
-78 12 -121 35 -189 44 -124 85 -189 188 -292 102 -102 197 -159 330 -196 103
-30 286 -32 384 -5 335 92 571 388 571 718 l0 70 31 -26 c56 -48 176 -28 209
34 6 12 13 20 14 18 1 -1 -1 -64 -5 -138z"/>
<path d="M1195 2140 c-4 -6 -2 -17 5 -23 9 -9 15 -7 25 7 13 18 15 18 21 2 12
-32 -4 -120 -26 -136 -19 -14 -17 -15 30 -16 38 0 47 2 39 12 -6 8 -8 36 -3
75 5 48 11 63 25 66 11 3 19 10 19 15 0 5 -10 6 -22 2 -25 -8 -26 -8 -74 2
-20 4 -34 1 -39 -6z"/>
<path d="M1006 2129 c-78 -13 -73 -62 9 -100 34 -16 45 -46 20 -55 -10 -4 -25
2 -40 16 -13 12 -28 19 -34 15 -17 -10 -13 -23 7 -21 10 0 16 -6 16 -16 -1
-14 4 -17 25 -12 53 12 61 16 72 35 13 25 0 43 -53 70 -37 19 -48 41 -27 55 6
3 24 -3 40 -15 31 -23 36 -19 16 14 -10 18 -18 20 -51 14z"/>
<path d="M1347 2133 c-12 -11 -8 -23 7 -23 8 0 16 6 19 13 3 8 7 6 12 -6 12
-30 -5 -89 -36 -119 -16 -16 -29 -32 -29 -34 0 -3 15 -4 33 -3 17 1 41 -2 52
-6 19 -7 19 -7 3 10 -16 17 -15 21 4 69 24 62 35 76 54 69 19 -7 18 -27 -7
-74 -11 -22 -19 -53 -17 -67 2 -23 8 -27 33 -27 20 0 31 5 33 18 2 10 -3 17
-12 17 -9 0 -16 -7 -16 -15 0 -8 -4 -15 -9 -15 -21 0 -18 19 10 61 16 24 29
54 29 66 0 27 -42 57 -68 51 -10 -3 -27 1 -37 8 -20 15 -47 18 -58 7z"/>
<path d="M844 2082 c-12 -2 -30 -12 -40 -23 -9 -10 -27 -19 -39 -19 -21 0 -45
-17 -45 -32 0 -4 7 -8 15 -8 8 0 15 7 15 15 0 30 18 14 49 -45 26 -49 30 -64
21 -75 -7 -9 -8 -15 -2 -15 5 0 15 7 22 15 7 8 20 15 29 15 10 0 26 6 36 14
11 8 25 12 32 9 10 -4 10 2 2 26 -13 36 -35 56 -24 22 7 -24 -9 -51 -31 -51
-18 0 -48 46 -39 60 5 8 13 6 26 -6 24 -22 24 -17 -1 32 -15 30 -19 34 -20 17
0 -31 -17 -38 -30 -13 -22 41 25 66 62 33 10 -9 18 -12 18 -6 0 18 -34 39 -56
35z"/>
<path d="M1122 2068 c-20 -20 -14 -24 28 -20 41 4 67 22 31 22 -10 0 -25 2
-33 5 -7 3 -19 0 -26 -7z"/>
<path d="M1677 2023 c-14 -13 -6 -25 13 -20 36 9 33 -13 -10 -69 -33 -44 -45
-54 -62 -48 -14 4 -18 2 -14 -5 4 -6 13 -11 21 -11 8 0 26 -12 41 -27 25 -27
26 -27 19 -5 -4 14 -1 32 10 48 18 28 39 23 30 -7 -10 -29 10 -23 26 9 23 45
23 48 5 33 -27 -23 -41 1 -17 30 16 20 23 22 38 13 12 -8 17 -21 15 -40 l-2
-29 20 24 c18 21 30 54 14 38 -4 -3 -18 3 -32 13 -13 11 -30 20 -37 20 -6 0
-20 9 -30 20 -18 20 -36 25 -48 13z"/>
<path d="M628 1968 c-57 -39 -78 -78 -42 -78 11 0 13 6 9 19 -13 41 19 34 62
-14 34 -37 43 -54 38 -72 l-5 -23 38 27 39 28 -28 12 c-27 11 -79 77 -79 100
0 16 32 17 48 1 6 -6 14 -9 17 -7 3 3 -5 15 -18 26 l-22 20 -57 -39z"/>
<path d="M1547 1994 c-14 -15 -6 -19 46 -22 34 -2 48 0 42 7 -13 13 -78 24
-88 15z"/>
<path d="M1830 1905 c0 -9 7 -15 16 -13 34 6 23 -20 -26 -66 -40 -37 -55 -46
-73 -40 -16 5 -12 -3 18 -29 39 -35 68 -50 47 -24 -9 10 1 26 43 67 46 45 56
51 69 40 10 -7 16 -8 16 -2 0 6 -9 13 -20 17 -11 3 -29 19 -40 36 -23 31 -50
39 -50 14z"/>
<path d="M470 1828 c-50 -52 -56 -68 -31 -76 9 -3 11 2 6 17 -9 31 6 26 64
-20 31 -24 51 -49 51 -61 0 -17 3 -16 30 10 35 35 37 42 12 35 -23 -6 -60 33
-45 48 7 7 21 5 46 -7 30 -14 39 -15 52 -4 8 7 15 18 15 25 0 18 -27 38 -34
26 -4 -5 1 -14 10 -19 13 -7 14 -11 4 -17 -8 -5 -18 -2 -25 8 -7 10 -20 17
-29 17 -9 0 -16 8 -16 19 0 23 -25 51 -46 51 -8 0 -37 -24 -64 -52z m84 -3 c3
-8 -2 -21 -10 -29 -12 -13 -19 -13 -34 -3 -20 12 -25 28 -13 40 12 13 51 7 57
-8z"/>
<path d="M1933 1798 c2 -7 11 -12 21 -10 32 6 15 -24 -36 -61 -34 -24 -59 -35
-70 -31 -15 5 -13 -4 12 -45 38 -61 62 -70 122 -43 60 26 74 45 59 80 -24 55
-76 122 -94 122 -11 0 -17 -5 -14 -12z m87 -118 c0 -23 -46 -60 -73 -60 -12 0
-34 12 -49 27 l-28 27 57 33 58 33 18 -21 c9 -12 17 -29 17 -39z"/>
<path d="M383 1710 c-46 -27 -46 -77 -2 -114 42 -36 74 -42 115 -23 60 29 56
98 -8 137 -41 25 -65 25 -105 0z m83 -31 c47 -29 59 -89 18 -89 -31 0 -94 41
-100 65 -12 49 25 60 82 24z"/>
<path d="M2055 1620 c-6 -10 -5 -11 14 -14 40 -5 2 -33 -76 -56 -34 -11 -45
-11 -58 0 -19 15 -20 0 -1 -25 7 -10 11 -26 9 -36 -3 -9 0 -20 6 -23 6 -4 11
-15 11 -25 0 -14 6 -17 30 -13 37 5 50 22 18 22 -51 0 -63 41 -19 60 37 15 58
5 39 -18 -11 -14 -10 -15 5 -9 10 4 27 7 38 7 10 0 19 5 19 10 0 6 -9 10 -21
10 -12 0 -19 5 -16 13 2 6 14 12 28 12 30 0 37 -29 13 -56 -20 -22 -15 -24 21
-7 30 14 30 14 5 56 -11 18 -20 43 -20 55 0 35 -31 60 -45 37z"/>
<path d="M305 1590 c3 -5 1 -11 -5 -15 -5 -3 -10 -19 -10 -34 0 -15 -7 -36
-15 -47 -26 -35 -10 -84 18 -54 9 10 9 14 0 17 -7 3 -13 9 -13 14 0 29 137
-12 149 -45 8 -21 8 -21 15 2 5 13 5 26 2 30 -3 3 4 16 16 29 12 13 17 23 11
23 -6 0 -16 -7 -23 -15 -11 -13 -16 -12 -44 2 -29 16 -30 18 -8 21 23 4 31 22
10 22 -7 0 -24 3 -38 7 -23 6 -24 5 -11 -11 19 -22 7 -32 -27 -20 -41 14 -36
47 8 55 35 6 30 12 -18 22 -12 3 -20 1 -17 -3z"/>
<path d="M320 1361 c-8 -20 -9 -39 -3 -57 l9 -27 17 26 c11 17 15 36 11 56 -8
39 -18 39 -34 2z"/>
<path d="M2050 1353 c0 -21 9 -49 19 -62 l18 -24 5 31 c4 27 -23 92 -38 92 -2
0 -4 -17 -4 -37z"/>
<path d="M1140 1913 c-41 -21 -72 -70 -73 -116 -3 -132 174 -187 252 -78 39
55 18 160 -38 190 -39 22 -104 23 -141 4z m146 -37 c31 -31 34 -40 34 -90 0
-53 -2 -56 -37 -81 -91 -61 -193 -11 -193 95 0 34 6 48 34 76 29 29 41 34 81
34 40 0 52 -5 81 -34z"/>
<path d="M1200 1873 c0 -6 -8 -14 -17 -16 -17 -4 -17 -5 0 -6 13 -1 17 -9 16
-33 -1 -24 -3 -27 -6 -10 -8 41 -23 23 -23 -28 0 -27 5 -50 10 -50 6 0 10 11
10 25 0 35 28 32 32 -2 3 -18 6 -9 8 25 5 51 -5 73 -13 30 -3 -17 -5 -14 -6
10 -1 24 3 32 17 33 13 0 14 2 2 6 -8 3 -18 11 -22 17 -6 8 -8 8 -8 -1z"/>
<path d="M1129 1838 c-5 -21 -2 -108 4 -108 4 0 7 25 7 55 0 30 -2 55 -5 55
-3 0 -5 -1 -6 -2z"/>
<path d="M1262 1828 c-19 -19 -14 -36 14 -54 18 -12 22 -20 14 -28 -8 -8 -13
-7 -20 4 -5 8 -12 11 -16 7 -12 -11 12 -29 32 -25 28 5 31 48 5 55 -12 3 -21
12 -21 19 0 17 17 18 23 2 2 -7 8 -10 12 -6 8 8 -12 38 -24 38 -4 0 -12 -5
-19 -12z"/>
<path d="M1021 1814 c0 -11 3 -14 6 -6 3 7 2 16 -1 19 -3 4 -6 -2 -5 -13z"/>
<path d="M1022 1770 c0 -14 2 -19 5 -12 2 6 2 18 0 25 -3 6 -5 1 -5 -13z"/>
<path d="M1371 1754 c0 -11 3 -14 6 -6 3 7 2 16 -1 19 -3 4 -6 -2 -5 -13z"/>
<path d="M652 1201 l3 -481 38 -37 37 -38 204 -5 c149 -4 207 -9 219 -18 9 -8
22 -40 28 -73 6 -32 15 -59 20 -59 4 0 13 25 19 55 19 91 29 95 242 95 202 0
235 8 268 62 19 32 20 49 20 507 l0 474 -31 -7 c-215 -43 -823 -43 -1039 0
l-31 7 3 -482z m178 439 c52 -5 155 -10 228 -10 l132 0 0 -235 0 -235 -132 0
c-123 0 -277 12 -355 26 l-33 6 0 235 0 235 33 -6 c17 -3 75 -10 127 -16z
m902 -127 c2 -158 -1 -315 -5 -320 -11 -10 -170 -25 -329 -30 l-188 -6 0 237
c0 148 4 235 10 231 11 -7 376 13 440 25 25 4 51 8 58 9 9 1 12 -35 14 -146z
m-944 -353 c48 -5 158 -12 245 -16 l157 -7 0 -268 c0 -168 4 -270 10 -274 7
-4 10 88 10 269 l0 274 123 4 c67 2 124 2 126 1 2 -2 -3 -11 -12 -21 -22 -24
-21 -41 0 -65 17 -18 17 -19 0 -28 -9 -6 -17 -21 -17 -34 0 -30 -35 -68 -57
-63 -25 5 -27 25 -3 31 26 7 26 27 0 27 -11 0 -20 4 -20 8 0 5 -6 9 -14 9 -23
0 -40 -64 -26 -97 10 -25 9 -32 -11 -59 -21 -28 -25 -30 -38 -16 -14 14 -14
19 1 48 27 53 28 64 7 83 -21 19 -38 12 -20 -9 8 -11 7 -25 -6 -59 -18 -50
-13 -77 16 -85 21 -5 37 -51 23 -65 -12 -12 -3 -54 13 -68 10 -8 15 -8 21 1 4
7 2 15 -4 17 -17 5 -15 38 4 67 20 31 34 32 34 2 0 -26 35 -53 46 -35 4 6 -2
17 -12 25 -12 9 -18 23 -16 38 2 17 -1 25 -12 25 -21 0 -20 6 3 29 23 23 57
18 64 -10 4 -15 14 -19 46 -19 37 0 41 3 41 24 0 34 37 42 61 13 15 -19 15
-23 3 -25 -10 -2 -14 -13 -12 -27 2 -15 -4 -30 -16 -38 -10 -8 -16 -19 -12
-25 11 -18 46 9 46 35 0 30 14 29 34 -2 19 -29 21 -62 4 -67 -6 -2 -8 -10 -4
-17 6 -9 11 -9 21 -1 16 13 25 56 14 67 -13 14 2 61 22 66 29 8 34 35 16 85
-13 34 -14 48 -6 59 16 18 3 29 -16 13 -20 -17 -19 -51 2 -89 16 -27 16 -32 2
-46 -14 -14 -17 -12 -38 16 -20 27 -21 34 -11 59 14 33 -3 97 -26 97 -8 0 -14
-4 -14 -9 0 -4 -9 -8 -20 -8 -26 0 -26 -20 0 -27 24 -6 21 -26 -3 -31 -20 -4
-69 46 -60 61 3 5 -2 16 -12 23 -17 13 -17 15 -2 32 21 23 22 46 2 62 -8 7
-15 16 -15 20 0 4 42 10 93 14 50 4 109 11 130 15 l37 9 0 -225 c0 -135 -4
-232 -10 -244 -23 -42 -59 -49 -250 -49 -198 0 -234 -8 -246 -55 -3 -14 -9
-25 -13 -25 -3 0 -20 17 -37 37 l-32 38 -207 5 -207 5 -29 33 -29 32 0 226 c0
202 2 225 16 220 8 -3 55 -10 102 -16z m683 -54 c5 3 9 -3 9 -14 0 -10 -7 -19
-15 -19 -10 0 -15 10 -14 26 0 14 3 20 6 13 2 -6 9 -10 14 -6z m9 -108 c0 -11
16 -36 35 -56 19 -20 31 -40 26 -45 -12 -12 -41 3 -41 23 0 10 -7 20 -15 24
-8 3 -15 9 -14 13 1 4 1 15 0 23 -1 13 -2 13 -11 0 -8 -12 -10 -10 -10 11 0
16 5 26 15 26 8 0 15 -9 15 -19z m-20 -48 c0 -5 -7 -10 -15 -10 -14 0 -19 -12
-16 -32 0 -5 -4 -8 -10 -8 -5 0 -7 -4 -4 -10 7 -11 -18 -14 -28 -4 -8 9 44 72
61 73 6 1 12 -3 12 -9z m1 -32 c0 -10 2 -10 6 0 7 17 23 15 23 -3 0 -9 -9 -15
-25 -15 -16 0 -25 6 -25 15 0 18 20 20 21 3z m32 -54 c-6 -17 -44 -15 -51 4
-2 8 7 12 27 12 23 0 29 -4 24 -16z"/>
<path d="M680 1430 c0 -185 2 -219 15 -224 22 -8 164 -24 285 -31 99 -6 103
-5 76 10 -15 8 -38 15 -51 15 -49 0 -76 84 -36 112 18 13 18 15 -9 47 l-28 33
-26 -18 c-30 -22 -31 -27 -11 -44 37 -31 -1 -103 -53 -99 -15 1 -40 -3 -56
-10 -26 -10 -34 -9 -55 7 -32 23 -38 55 -17 87 9 13 16 35 16 48 0 51 70 76
105 38 17 -20 17 -20 46 1 l29 22 -26 27 c-15 16 -33 25 -44 22 -23 -6 -35 14
-20 32 7 8 7 15 1 19 -5 4 -12 2 -16 -4 -12 -19 -22 -1 -22 40 0 26 4 40 13
40 7 0 41 -34 75 -75 34 -41 64 -75 66 -75 2 0 41 32 85 70 45 39 85 70 89 70
13 0 21 -19 12 -32 -4 -7 -7 -22 -8 -32 0 -20 -25 -36 -25 -17 0 6 -5 11 -11
11 -5 0 -9 -8 -7 -17 4 -27 -11 -46 -26 -34 -9 8 -23 2 -49 -22 l-37 -32 30
-34 c27 -31 30 -32 45 -17 38 38 112 0 102 -52 -3 -14 0 -36 5 -48 14 -31 2
-73 -25 -84 -18 -7 -15 -9 21 -9 l42 -1 0 220 0 220 -92 0 c-105 0 -314 17
-370 30 l-38 8 0 -218z m88 184 c8 -2 10 -9 5 -16 -17 -28 -12 -77 10 -93 12
-8 18 -15 13 -15 -5 0 -1 -9 9 -20 10 -11 23 -20 29 -19 24 3 37 -1 32 -10 -4
-5 0 -12 6 -14 8 -3 5 -6 -5 -6 -10 -1 -28 4 -40 11 -34 19 -48 18 -78 -4 -18
-14 -32 -36 -38 -62 -7 -32 -9 -6 -10 112 l-1 152 28 -6 c15 -3 33 -8 40 -10z
m129 -11 c-3 -5 35 -7 84 -6 49 1 89 -3 89 -8 0 -5 -7 -9 -15 -9 -8 0 -14 -3
-12 -8 3 -10 -77 -82 -92 -82 -6 0 -11 -5 -11 -11 0 -6 -16 9 -35 33 -19 23
-40 49 -46 57 -9 10 -8 15 2 23 10 7 8 8 -8 3 -12 -3 -24 -1 -28 5 -4 6 9 10
35 10 23 0 39 -3 37 -7z m262 -150 c-1 -76 -4 -126 -6 -112 -3 18 -16 33 -38
45 -30 16 -40 17 -67 6 -27 -10 -35 -9 -47 3 -13 13 -13 17 7 35 11 11 33 20
48 20 16 0 28 6 31 18 2 10 14 22 26 27 15 7 25 24 31 53 5 23 10 42 12 42 2
0 3 -62 3 -137z m-209 -124 c0 -25 -26 -24 -33 1 -3 11 -1 20 5 20 5 0 6 6 2
13 -5 8 -2 8 9 -2 9 -7 17 -22 17 -32z m207 -41 c-3 -8 -6 -5 -6 6 -1 11 2 17
5 13 3 -3 4 -12 1 -19z m-218 -61 c1 -5 -3 -5 -9 -2 -5 3 -10 1 -10 -4 0 -6 9
-11 19 -11 11 0 23 -5 27 -12 5 -8 -9 -9 -56 -5 -35 4 -71 7 -81 7 -11 0 -19
4 -19 8 0 5 13 7 30 4 22 -3 36 2 57 24 27 28 39 25 42 -9z"/>
<path d="M770 1361 c0 -26 17 -36 35 -21 18 15 8 40 -16 40 -12 0 -19 -7 -19
-19z"/>
<path d="M1054 1329 c-3 -6 0 -17 7 -25 18 -17 44 -2 36 20 -7 18 -33 21 -43
5z"/>
<path d="M829 1304 c-9 -11 -9 -18 -1 -26 14 -14 42 -3 42 16 0 20 -27 27 -41
10z"/>
<path d="M743 1284 c-3 -8 -1 -20 6 -27 14 -14 47 15 37 32 -10 16 -36 13 -43
-5z"/>
<path d="M990 1275 c-10 -11 -10 -19 -2 -27 15 -15 44 -2 40 19 -4 23 -22 27
-38 8z"/>
<path d="M1072 1247 c-15 -17 1 -42 23 -33 18 6 17 37 -1 43 -6 2 -16 -2 -22
-10z"/>
<path d="M1281 1494 l-61 -56 0 -136 0 -135 128 7 c143 7 340 25 360 31 17 6
13 177 -5 182 -6 2 -13 -6 -15 -19 -2 -15 -10 -23 -23 -23 -16 0 -20 6 -18 30
2 27 2 28 -7 8 -10 -24 -50 -39 -76 -29 -11 4 -15 15 -12 35 l4 29 -27 -20
c-28 -21 -54 -16 -45 8 4 11 1 12 -13 5 -10 -6 -21 -8 -24 -4 -3 3 -13 -2 -22
-11 -18 -18 -80 -23 -70 -5 4 5 19 15 33 21 16 6 22 12 14 15 -7 3 -30 -5 -53
-16 -61 -32 -87 -27 -52 11 9 10 11 18 5 18 -6 0 -14 -4 -17 -10 -3 -5 -18
-10 -33 -10 l-26 0 35 36 c18 20 46 45 62 56 l27 20 31 -26 c17 -14 34 -26 39
-26 5 0 16 -7 24 -15 14 -14 18 -13 44 16 l28 32 46 -34 c26 -19 48 -41 51
-49 3 -12 6 -11 12 5 15 36 36 45 67 29 39 -20 35 -3 -4 19 -30 17 -31 17 -54
-4 l-23 -21 -42 36 c-24 20 -47 36 -52 36 -5 0 -22 -9 -38 -21 l-29 -21 -50
31 c-28 17 -52 31 -55 31 -2 0 -31 -25 -64 -56z m-11 -115 c0 -6 15 -9 34 -8
19 2 40 -2 48 -9 16 -13 53 -9 74 9 11 9 21 9 40 0 14 -6 34 -11 45 -11 19 0
49 -21 49 -35 0 -3 -13 1 -29 10 -26 13 -38 13 -110 -2 -45 -9 -88 -21 -97
-28 -15 -10 -15 -13 0 -27 8 -9 35 -19 58 -23 24 -4 56 -14 72 -22 37 -19 116
-9 150 20 l25 22 -29 20 c-17 11 -30 23 -30 26 0 10 73 9 86 -2 8 -7 14 -7 19
1 14 23 23 7 21 -42 l-1 -53 -50 -7 c-74 -10 -385 -29 -393 -24 -6 3 -7 103
-3 179 1 18 21 24 21 6z m281 -80 c56 -24 54 -31 -9 -47 -35 -8 -53 -7 -97 9
-30 10 -68 19 -85 19 -54 0 -31 17 38 27 99 15 99 15 153 -8z"/>
<path d="M682 1120 c1 -21 5 -45 10 -52 6 -8 7 -4 3 12 -5 17 66 -47 212 -191
120 -119 230 -223 246 -233 26 -16 27 -16 27 6 0 17 -66 89 -238 261 -130 130
-243 237 -250 237 -7 0 -11 -14 -10 -40z m48 -12 c0 -10 4 -17 10 -13 5 3 17
-6 26 -20 9 -14 22 -25 30 -25 8 0 11 -6 8 -15 -5 -11 -2 -13 10 -9 9 3 16 1
16 -5 0 -23 -26 -9 -77 41 -51 51 -69 83 -38 72 8 -4 15 -15 15 -26z m120
-106 c0 -13 -12 -22 -22 -16 -10 6 -1 24 13 24 5 0 9 -4 9 -8z m16 -28 c-4
-12 -2 -15 9 -10 8 3 14 2 13 -2 -3 -9 65 -77 74 -74 4 1 5 -5 2 -13 -5 -11
-2 -13 10 -9 9 3 16 1 16 -5 0 -24 -27 -9 -82 46 -55 55 -71 83 -47 83 6 0 8
-7 5 -16z m144 -132 c0 -13 -12 -22 -22 -16 -10 6 -1 24 13 24 5 0 9 -4 9 -8z
m16 -28 c-5 -12 -2 -15 9 -10 9 3 14 2 11 -3 -3 -4 8 -18 25 -30 16 -12 27
-26 24 -30 -3 -5 2 -11 10 -15 8 -3 15 -11 15 -18 0 -7 -25 12 -55 42 -52 52
-68 80 -44 80 6 0 8 -7 5 -16z m128 -120 c4 -10 1 -14 -6 -12 -15 5 -23 28
-10 28 5 0 13 -7 16 -16z"/>
<path d="M750 1140 c8 -5 20 -10 25 -10 6 0 3 5 -5 10 -8 5 -19 10 -25 10 -5
0 -3 -5 5 -10z"/>
<path d="M790 1146 c0 -1 88 -88 195 -195 191 -191 195 -194 195 -160 0 31
-16 49 -154 189 -139 139 -159 156 -195 161 -23 3 -41 5 -41 5z m138 -90 c16
-19 34 -32 38 -28 4 4 4 -1 1 -11 -4 -11 -3 -16 3 -12 13 8 43 -22 35 -35 -3
-6 1 -7 10 -4 9 4 15 3 13 -2 -3 -11 84 -99 94 -96 4 1 5 -5 1 -14 -4 -12 -21
-1 -69 47 -35 35 -64 69 -64 76 0 7 -6 13 -13 13 -7 0 -42 30 -77 66 -52 53
-59 63 -34 51 17 -9 45 -32 62 -51z m227 -227 c4 -11 4 -23 1 -26 -3 -4 -6 1
-6 10 0 10 -4 17 -10 17 -5 0 -10 5 -10 10 0 18 19 10 25 -11z"/>
<path d="M908 1123 c6 -2 18 -2 25 0 6 3 1 5 -13 5 -14 0 -19 -2 -12 -5z"/>
<path d="M1060 1016 c113 -113 115 -114 118 -84 3 26 -8 42 -75 113 -71 75
-81 83 -118 84 l-40 1 115 -114z m8 39 c28 -29 53 -51 55 -49 2 3 10 -2 17
-11 7 -9 9 -19 5 -23 -4 -4 -10 -1 -12 6 -3 6 -8 10 -12 8 -4 -3 -38 26 -76
64 -41 42 -61 67 -49 64 11 -3 44 -29 72 -59z m92 -105 c0 -5 -2 -10 -4 -10
-3 0 -8 5 -11 10 -3 6 -1 10 4 10 6 0 11 -4 11 -10z"/>
<path d="M1055 1120 c-3 -5 -2 -10 4 -10 5 0 13 5 16 10 3 6 2 10 -4 10 -5 0
-13 -4 -16 -10z"/>
<path d="M1112 1105 c31 -29 40 -31 32 -10 -4 8 -1 15 6 15 8 0 10 -9 6 -24
-4 -15 0 -28 9 -36 13 -11 15 -8 15 18 0 52 -8 62 -53 62 l-42 0 27 -25z"/>
<path d="M681 1001 c2 -28 5 -48 8 -46 2 3 70 -60 151 -139 129 -129 149 -145
178 -144 17 1 32 3 32 5 0 10 -75 68 -84 65 -6 -2 -7 0 -3 4 9 10 -203 225
-215 218 -5 -3 -7 -1 -6 3 2 5 -12 26 -30 47 l-33 38 2 -51z m47 -30 c-2 -6 8
-17 22 -24 14 -8 24 -19 23 -25 -2 -7 6 -12 17 -12 13 0 18 -5 14 -15 -5 -11
-2 -13 10 -9 9 3 16 1 16 -5 0 -23 -27 -9 -72 37 -25 26 -49 58 -53 72 -7 22
-6 23 9 8 9 -10 15 -22 14 -27z m119 -115 c-4 -10 -1 -13 9 -9 14 5 19 -8 7
-20 -9 -9 -44 23 -37 34 9 15 27 10 21 -5z m39 -42 c-4 -12 -2 -15 9 -10 10 4
15 -1 15 -14 0 -11 5 -19 12 -17 6 1 17 -9 25 -23 7 -14 18 -24 24 -22 14 3
43 -27 34 -36 -4 -4 -10 -1 -12 6 -3 6 -10 12 -16 12 -6 0 -33 21 -59 47 -46
46 -60 73 -37 73 6 0 8 -7 5 -16z"/>
<path d="M1160 1020 c0 -5 5 -10 10 -10 6 0 10 5 10 10 0 6 -4 10 -10 10 -5 0
-10 -4 -10 -10z"/>
<path d="M685 930 c-3 -5 -1 -10 4 -10 6 0 11 5 11 10 0 6 -2 10 -4 10 -3 0
-8 -4 -11 -10z"/>
<path d="M680 873 c0 -36 6 -46 83 -121 71 -69 88 -81 116 -80 32 1 32 2 -81
117 -62 63 -114 117 -115 120 -2 2 -3 -14 -3 -36z m42 -40 c-8 -11 -16 -4 -18
17 -4 23 -3 24 8 5 6 -11 11 -21 10 -22z m48 -49 c0 -8 6 -14 14 -14 17 0 38
-24 29 -34 -9 -9 -84 65 -77 76 8 12 34 -11 34 -28z m100 -86 c0 -5 -4 -8 -10
-8 -5 0 -10 5 -10 10 0 6 -3 9 -7 9 -17 -3 -24 1 -18 11 6 10 45 -9 45 -22z"/>
<path d="M1160 885 c0 -5 5 -17 10 -25 5 -8 10 -10 10 -5 0 6 -5 17 -10 25 -5
8 -10 11 -10 5z"/>
<path d="M683 795 c0 -8 4 -12 9 -9 5 3 6 10 3 15 -9 13 -12 11 -12 -6z"/>
<path d="M680 757 c0 -22 46 -74 71 -80 17 -5 12 4 -22 41 -24 26 -45 49 -46
51 -2 2 -3 -3 -3 -12z"/>
<path d="M1160 745 c0 -5 5 -17 10 -25 5 -8 10 -10 10 -5 0 6 -5 17 -10 25 -5
8 -10 11 -10 5z"/>
<path d="M788 683 c7 -3 16 -2 19 1 4 3 -2 6 -13 5 -11 0 -14 -3 -6 -6z"/>
<path d="M928 683 c7 -3 16 -2 19 1 4 3 -2 6 -13 5 -11 0 -14 -3 -6 -6z"/>
<path d="M1068 683 c7 -3 16 -2 19 1 4 3 -2 6 -13 5 -11 0 -14 -3 -6 -6z"/>
<path d="M2017 1139 c-26 -15 -46 -68 -40 -102 7 -34 56 -77 88 -77 40 0 73
21 90 57 20 41 14 75 -20 109 -26 26 -84 32 -118 13z m113 -49 c22 -12 26 -50
8 -68 -16 -16 -86 -15 -118 1 -31 16 -39 56 -13 75 20 15 89 10 123 -8z"/>
<path d="M238 1080 c4 -26 6 -28 16 -15 17 23 43 9 48 -26 5 -35 -20 -56 -42
-36 -10 10 -12 8 -6 -8 4 -11 10 -33 13 -48 5 -26 6 -27 19 -9 7 11 43 38 79
62 36 23 65 45 65 49 0 4 -38 15 -85 25 -47 10 -88 23 -91 27 -11 19 -20 7
-16 -21z m111 -41 c-32 -24 -39 -24 -39 4 0 21 4 23 31 19 l32 -5 -24 -18z"/>
<path d="M418 953 c-10 -2 -18 -9 -18 -14 0 -6 8 -8 19 -4 21 6 50 -21 35 -34
-5 -4 -38 -20 -73 -35 -51 -23 -65 -26 -72 -15 -4 7 -10 11 -12 9 -2 -3 6 -25
19 -50 13 -25 24 -37 24 -28 0 19 125 82 141 72 12 -7 11 -44 -1 -44 -5 0 -10
-5 -10 -10 0 -7 6 -7 19 0 12 6 22 6 26 1 3 -5 -24 -31 -60 -56 -54 -39 -68
-45 -80 -35 -9 7 -15 8 -15 2 0 -5 7 -15 14 -22 8 -6 29 -34 46 -61 l32 -49
29 15 c36 19 37 28 4 19 -18 -4 -32 -1 -45 11 -27 24 -25 41 5 61 30 20 44 11
27 -16 -19 -31 -15 -32 28 -2 40 27 55 51 22 33 -13 -7 -23 -6 -30 1 -9 9 -4
16 19 30 30 18 32 18 45 1 17 -22 18 -45 2 -61 -18 -18 3 -14 24 4 17 16 16
19 -19 68 -20 28 -54 88 -75 134 -22 45 -42 81 -46 81 -4 -1 -15 -3 -24 -6z"/>
<path d="M2113 899 c-6 -6 -44 -9 -97 -7 -47 2 -86 1 -86 -1 0 -2 27 -35 60
-72 33 -37 60 -73 60 -81 1 -7 7 -2 15 12 16 28 20 54 5 30 -8 -13 -11 -13
-25 1 -13 13 -14 20 -4 42 14 32 63 40 52 10 -11 -32 10 -4 28 37 18 39 14 51
-8 29z m-80 -70 c-6 -23 -11 -24 -35 -2 -25 23 -22 30 11 25 22 -3 28 -8 24
-23z"/>
<path d="M1876 791 c-19 -21 -21 -38 -2 -22 10 9 20 0 45 -40 17 -28 31 -52
31 -54 0 -1 -27 4 -59 12 -48 12 -58 18 -54 32 3 9 -8 0 -25 -19 -38 -42 -39
-49 -9 -43 13 3 58 -5 102 -16 44 -11 81 -18 83 -16 2 2 -3 14 -11 27 -8 12
-31 53 -50 90 -33 63 -36 66 -51 49z"/>
<path d="M606 665 c4 -9 -13 -35 -47 -70 -41 -42 -55 -52 -66 -44 -24 21 -13
-6 14 -31 23 -22 25 -23 20 -5 -4 14 6 34 39 70 l44 50 -5 -60 c-3 -33 -8 -80
-10 -105 l-5 -44 62 68 c48 51 67 66 81 61 24 -10 21 -21 -22 -90 -28 -44 -43
-59 -57 -57 -10 2 13 -17 51 -41 l70 -45 23 21 c31 29 28 39 -7 20 -27 -16
-30 -16 -55 0 -26 18 -26 18 -9 48 21 36 39 32 35 -7 l-2 -29 16 30 c9 17 23
38 32 48 8 9 10 17 5 17 -6 0 -16 -6 -23 -14 -6 -8 -17 -12 -25 -10 -11 4 -10
11 3 35 10 16 22 29 28 29 18 0 47 -38 41 -55 -4 -8 -3 -15 1 -15 8 0 35 40
30 44 -2 2 -32 20 -68 41 -36 21 -75 47 -87 58 -21 18 -22 18 -17 1 2 -11 -8
-33 -26 -54 l-31 -35 7 67 c5 56 3 71 -12 92 -21 28 -37 34 -28 11z"/>
<path d="M1720 605 c0 -2 12 -41 26 -86 14 -45 24 -90 21 -100 -4 -16 -2 -16
24 3 34 25 37 32 10 23 -29 -9 -34 29 -6 55 28 26 59 18 49 -14 -5 -17 0 -15
30 13 20 19 36 37 36 40 0 2 -3 2 -6 -2 -7 -6 -20 -1 -126 47 -32 14 -58 24
-58 21z m73 -97 c-18 -20 -27 -15 -37 19 -7 20 -5 21 23 10 29 -10 29 -12 14
-29z"/>
<path d="M1533 487 c-39 -21 -60 -43 -29 -31 21 8 90 -128 73 -145 -17 -17 -3
-13 45 14 49 28 75 52 78 75 5 37 -2 63 -25 85 -31 32 -83 32 -142 2z m107
-29 c32 -52 35 -77 13 -100 -20 -20 -20 -20 -57 47 -20 36 -36 70 -36 75 0 6
14 10 30 10 23 0 35 -7 50 -32z"/>
<path d="M885 428 c-15 -14 -28 -38 -32 -60 -5 -33 -2 -41 30 -73 25 -25 44
-35 65 -35 39 0 88 41 97 80 7 33 -15 84 -44 100 -34 17 -88 12 -116 -12z
m108 -9 c29 -40 -13 -139 -59 -139 -31 0 -44 31 -33 77 16 75 62 106 92 62z"/>
<path d="M1343 427 c-29 -6 -53 -14 -53 -19 0 -4 5 -7 12 -5 7 1 19 -28 29
-72 17 -70 17 -75 1 -88 -15 -13 -14 -13 8 -7 14 4 50 12 80 18 54 11 55 12
57 46 2 35 2 35 -9 8 -10 -22 -64 -56 -74 -45 -3 3 -34 136 -34 148 0 16 62
10 77 -8 14 -17 14 -17 9 0 -3 10 -6 23 -6 28 0 11 -26 10 -97 -4z"/>
<path d="M1113 410 c14 -9 17 -26 17 -90 0 -66 -3 -79 -17 -83 -10 -3 13 -5
50 -6 63 -1 71 1 98 28 20 20 29 39 29 61 0 49 -47 90 -102 90 -24 0 -54 3
-68 6 -21 5 -22 4 -7 -6z m111 -32 c34 -48 5 -151 -38 -135 -14 6 -16 19 -15
82 1 65 4 75 20 75 10 0 25 -10 33 -22z"/>
<path d="M1401 378 c-1 -14 -4 -28 -8 -30 -5 -1 2 -14 15 -27 l22 -24 -6 34
c-4 19 -11 43 -15 54 -7 18 -8 17 -8 -7z"/>
</g>
</svg>
