<?xml version="1.0" standalone="no"?>
<!DOCTYPE svg PUBLIC "-//W3C//DTD SVG 20010904//EN"
 "http://www.w3.org/TR/2001/REC-SVG-20010904/DTD/svg10.dtd">
<svg version="1.0" xmlns="http://www.w3.org/2000/svg"
 width="300.000000pt" height="295.000000pt" viewBox="0 0 300.000000 295.000000"
 preserveAspectRatio="xMidYMid meet">
<metadata>
Created by potrace 1.10, written by Peter Selinger 2001-2011
</metadata>
<g transform="translate(0.000000,295.000000) scale(0.100000,-0.100000)"
fill="#000000" stroke="none">
<path d="M612 2890 c-231 -61 -422 -239 -497 -464 -67 -201 -48 -397 56 -586
51 -91 167 -209 259 -263 81 -47 206 -87 268 -86 l47 1 -40 13 c-22 7 -67 19
-100 26 -83 18 -180 68 -240 123 -27 25 -53 45 -57 46 -5 0 -8 4 -8 10 0 5
-21 30 -46 55 -31 29 -44 50 -40 60 3 9 2 13 -4 10 -12 -8 -63 93 -56 112 3 8
2 12 -3 8 -5 -3 -14 10 -20 28 -10 29 -41 189 -41 210 0 4 154 7 343 7 l342 0
0 -359 c0 -405 7 -371 -76 -371 -51 0 -161 -35 -239 -76 -133 -69 -236 -177
-305 -319 -59 -119 -79 -219 -72 -350 10 -188 75 -334 212 -470 139 -140 298
-205 500 -205 132 0 222 22 336 81 189 98 346 316 364 506 7 69 -7 55 -24 -25
-6 -29 -19 -72 -30 -95 -10 -23 -27 -62 -38 -87 -11 -25 -34 -59 -51 -76 -17
-18 -28 -34 -25 -38 4 -3 0 -6 -9 -6 -8 0 -21 -11 -28 -25 -7 -14 -16 -25 -19
-25 -3 0 -28 -20 -54 -44 -27 -24 -67 -52 -90 -62 -23 -10 -44 -21 -47 -24 -9
-11 -64 -29 -120 -39 -30 -6 -77 -15 -105 -20 -27 -5 -53 -7 -57 -5 -4 3 -8
484 -8 1070 l0 1064 718 0 c486 1 711 4 700 11 -11 6 -144 9 -363 7 l-345 -3
0 49 c0 111 -63 269 -153 381 -139 174 -333 266 -556 264 -71 0 -130 -6 -179
-19z m362 -35 c190 -51 371 -205 448 -383 46 -108 65 -242 34 -242 -6 0 -313
-2 -682 -5 l-671 -5 9 67 c39 302 272 537 583 587 54 8 219 -2 279 -19z m-209
-2089 c5 -521 4 -680 -5 -686 -15 -9 -128 12 -204 39 -94 33 -165 80 -251 166
-64 63 -89 98 -122 165 -98 201 -98 424 -1 620 94 191 312 347 513 367 28 3
52 7 54 9 2 2 5 3 7 2 1 -2 5 -308 9 -682z"/>
<path d="M2046 2890 c-149 -40 -297 -138 -386 -256 -86 -114 -144 -267 -138
-362 3 -44 4 -42 20 43 12 62 32 120 64 185 39 79 62 109 133 180 47 47 101
92 119 99 17 7 32 17 32 21 0 17 129 63 228 81 59 10 108 19 110 19 1 0 2
-481 2 -1070 l0 -1070 -715 0 c-470 0 -715 -3 -715 -10 0 -9 326 -17 601 -14
l107 1 7 -65 c28 -260 220 -498 476 -588 61 -22 97 -27 205 -31 112 -5 141 -2
209 16 245 68 432 251 507 499 16 51 21 96 21 187 1 142 -14 209 -76 335 -58
120 -186 248 -307 308 -94 47 -183 72 -245 71 -34 -1 -25 -5 53 -25 93 -23
212 -71 212 -84 0 -4 18 -15 40 -25 22 -10 37 -22 34 -26 -3 -5 0 -9 7 -9 14
0 109 -95 109 -109 0 -6 5 -11 10 -11 24 0 111 -173 114 -227 0 -11 4 -19 8
-17 3 2 9 -22 13 -53 3 -32 8 -73 11 -90 l5 -33 -338 0 -338 0 0 359 0 359 35
6 c19 3 48 6 63 6 16 0 63 12 105 26 217 72 382 237 459 459 25 73 27 93 27
220 0 125 -3 149 -27 220 -38 115 -91 199 -182 290 -93 93 -198 154 -321 185
-102 26 -261 26 -358 0z m394 -46 c204 -64 372 -230 436 -428 34 -107 43 -260
20 -365 -60 -282 -294 -497 -583 -536 l-53 -7 0 394 c0 216 -3 525 -7 686 l-6
294 59 -7 c32 -4 93 -18 134 -31z m464 -2152 c-15 -127 -65 -255 -139 -354
-116 -157 -330 -258 -544 -258 -120 0 -202 19 -310 71 -68 33 -101 58 -171
128 -89 89 -139 168 -175 279 -23 72 -35 162 -21 163 6 0 160 0 343 -1 186 -1
334 3 337 8 3 5 156 9 345 10 l340 0 -5 -46z"/>
<path d="M1354 2158 c27 -38 19 -92 -24 -180 -44 -91 -46 -104 -25 -173 8 -27
13 -50 12 -52 -9 -8 -111 90 -129 125 -13 23 -26 42 -30 42 -14 0 -40 -90 -34
-115 4 -15 30 -56 57 -93 60 -78 72 -105 64 -146 -14 -68 -12 -67 -64 -32 -27
18 -66 36 -87 39 -22 4 -55 18 -75 31 l-37 25 29 -52 c16 -29 29 -62 29 -73 0
-33 66 -157 111 -207 39 -45 180 -127 218 -127 20 0 83 -113 105 -189 9 -30
19 -90 22 -133 7 -80 24 -91 24 -15 0 121 76 319 130 339 14 5 58 25 98 45 93
45 135 94 163 188 12 38 34 96 51 128 25 50 26 57 10 48 -23 -12 -82 -78 -82
-91 0 -6 -4 -10 -10 -10 -6 0 -10 54 -10 141 0 135 -15 269 -31 269 -8 0 -51
-89 -69 -144 l-13 -39 -15 28 c-8 16 -18 60 -22 98 -6 54 -14 76 -37 105 -42
52 -53 76 -53 112 0 17 -4 29 -9 26 -16 -10 -18 -53 -5 -132 16 -96 17 -164 4
-164 -14 0 -67 76 -79 113 -6 18 -15 61 -21 97 -19 106 -41 135 -128 169 l-53
21 15 -22z m92 -53 c25 -25 41 -71 59 -174 9 -51 29 -92 67 -135 27 -31 38
-37 56 -32 23 8 26 25 23 131 l-2 40 21 -24 c14 -16 20 -36 18 -66 -2 -55 38
-140 66 -140 21 0 48 41 60 90 6 25 9 27 17 13 12 -22 18 -125 9 -158 -8 -29
6 -136 22 -168 7 -14 18 -20 26 -17 12 4 13 -1 8 -27 -4 -18 -11 -34 -16 -36
-6 -2 -10 -13 -10 -25 0 -12 -8 -34 -18 -50 -19 -28 -79 -77 -95 -77 -4 0 -14
-6 -21 -13 -8 -7 -33 -19 -57 -27 -24 -8 -48 -20 -52 -27 -10 -16 -237 -19
-237 -3 0 5 -12 13 -26 16 -52 13 -140 64 -181 103 -47 46 -108 145 -98 161 3
5 2 10 -3 10 -5 0 -13 20 -19 45 -10 42 -6 55 11 38 4 -5 11 -8 14 -9 32 -2
73 -19 88 -35 61 -68 124 49 76 142 -10 20 -24 42 -30 50 -53 62 -72 95 -72
125 0 19 3 34 8 34 4 -1 20 -18 36 -38 30 -38 80 -76 115 -87 26 -8 35 22 22
72 -17 61 -13 85 29 176 22 47 40 99 40 116 0 25 3 29 18 24 9 -4 22 -12 28
-18z m134 -960 c0 -2 -13 -33 -29 -67 -17 -35 -33 -72 -36 -83 -6 -17 -9 -15
-20 16 -7 19 -22 54 -34 77 -11 23 -21 46 -21 52 0 6 28 10 70 10 39 0 70 -2
70 -5z"/>
<path d="M1408 1858 c-15 -28 -19 -161 -8 -243 5 -33 8 -61 6 -62 -1 -2 -24 3
-50 11 -57 17 -63 9 -41 -53 26 -74 23 -80 -39 -74 -44 4 -54 2 -60 -13 -5
-12 2 -26 22 -44 16 -15 42 -45 57 -68 42 -63 60 -71 197 -82 186 -15 255 4
302 82 29 47 15 151 -21 156 -13 2 -24 13 -28 30 -6 27 -22 64 -54 132 -26 57
-43 60 -63 12 -11 -26 -12 -27 -16 -4 -2 13 -8 20 -14 16 -8 -5 -9 -1 -5 10 5
11 3 15 -5 10 -8 -5 -9 -2 -5 10 4 10 3 15 -3 11 -16 -10 -86 70 -115 131 -28
60 -38 65 -57 32z m41 -40 c7 -20 38 -65 70 -100 32 -35 68 -80 79 -101 20
-38 21 -38 33 -16 6 13 15 34 19 48 7 24 8 25 15 6 4 -11 20 -50 36 -87 18
-41 30 -84 31 -114 l1 -48 22 28 22 28 6 -24 c4 -12 7 -42 7 -65 0 -55 -44
-108 -103 -124 -50 -14 -283 -5 -321 12 -13 6 -39 32 -57 58 -18 25 -46 58
-62 74 l-29 27 66 0 c49 0 66 4 66 13 0 14 -21 87 -35 119 -6 16 -4 16 22 4
15 -8 43 -16 62 -20 33 -6 33 -6 27 27 -20 98 -18 324 4 301 4 -5 13 -25 19
-46z"/>
<path d="M1446 1695 c10 -84 12 -201 2 -210 -3 -3 -25 3 -48 14 -47 23 -47 26
-13 -61 9 -26 14 -50 10 -54 -4 -4 -32 -3 -62 3 l-55 10 38 -36 c21 -20 44
-47 53 -60 12 -20 26 -24 104 -33 118 -12 185 -4 232 28 32 21 59 64 62 97 1
5 -15 0 -35 -12 -49 -29 -53 -27 -41 21 8 33 7 56 -8 115 -10 40 -22 73 -25
73 -8 0 -26 -41 -36 -82 -9 -41 -18 -34 -38 26 -9 30 -33 74 -53 98 -20 24
-49 63 -66 88 l-29 45 8 -70z m47 -58 c-3 -5 -1 -7 4 -4 20 13 74 -73 72 -115
-1 -21 -1 -21 -11 5 -10 29 -29 35 -46 15 -12 -15 -12 -16 -12 -64 0 -21 -4
-33 -10 -29 -6 4 -8 10 -5 14 2 5 -8 6 -23 4 -25 -4 -26 -3 -8 11 19 16 26 87
15 175 -6 44 -6 44 13 21 10 -12 15 -27 11 -33z m170 -140 c-4 -7 -8 -18 -9
-27 -5 -32 -21 -86 -32 -107 -10 -19 -9 -23 8 -28 11 -4 35 -4 53 -1 l32 6
-34 -16 c-19 -8 -57 -20 -85 -25 -44 -9 -61 -7 -129 14 -55 18 -79 22 -84 13
-3 -6 -3 -8 2 -4 4 4 14 3 20 -2 7 -6 32 -17 56 -25 l44 -14 -50 5 c-36 4 -56
13 -72 30 -29 32 -29 44 1 44 33 0 39 13 27 57 -9 34 -9 36 4 19 8 -11 15 -29
15 -40 0 -17 2 -18 10 -6 8 12 10 11 10 -7 0 -13 -6 -23 -14 -23 -8 0 -18 -4
-21 -10 -4 -6 8 -10 28 -10 32 0 34 2 29 28 -2 15 -15 42 -29 59 l-24 33 28
-11 c15 -6 39 -20 52 -32 l23 -22 -3 50 c-3 70 -1 95 11 95 6 0 10 -5 10 -11
0 -6 12 -37 27 -70 21 -45 30 -56 40 -47 7 6 13 15 13 21 0 6 7 19 17 29 10
12 12 18 4 18 -7 0 -9 5 -4 13 8 13 9 17 12 45 2 13 4 12 12 -6 5 -13 6 -29 2
-35z m-51 -49 c-4 -16 -6 -15 -23 6 -25 32 -24 36 5 23 15 -7 21 -17 18 -29z
m-202 22 c0 -5 -2 -10 -4 -10 -3 0 -8 5 -11 10 -3 6 -1 10 4 10 6 0 11 -4 11
-10z m264 -59 c-7 -66 -24 -84 -24 -26 0 19 5 35 10 35 6 0 9 3 9 8 -3 19 2
55 7 50 3 -3 2 -33 -2 -67z m53 -83 c-3 -7 -5 -2 -5 12 0 14 2 19 5 13 2 -7 2
-19 0 -25z m-57 -38 c-8 -5 -26 -9 -40 -9 l-25 1 25 8 c14 4 32 8 40 9 13 1
13 0 0 -9z"/>
</g>
</svg>
